<svg width="1912" height="56" viewBox="0 0 1912 56" fill="none" xmlns="http://www.w3.org/2000/svg">
<rect width="56" height="56" rx="16" fill="#1E2235"></rect>
<path d="M22.8146 43.5556C25.6768 43.5556 27.9998 41.2326 27.9998 38.3704V33.1852H22.8146C19.9524 33.1852 17.6294 35.5082 17.6294 38.3704C17.6294 41.2326 19.9524 43.5556 22.8146 43.5556Z" fill="#0ACF83"></path>
<path d="M17.6294 28C17.6294 25.1377 19.9524 22.8148 22.8146 22.8148H27.9998V33.1851H22.8146C19.9524 33.1851 17.6294 30.8622 17.6294 28Z" fill="#A259FF"></path>
<path d="M17.6294 17.6296C17.6294 14.7674 19.9524 12.4444 22.8146 12.4444H27.9998V22.8148H22.8146C19.9524 22.8148 17.6294 20.4918 17.6294 17.6296Z" fill="#F24E1E"></path>
<path d="M28 12.4444H33.1852C36.0474 12.4444 38.3704 14.7674 38.3704 17.6296C38.3704 20.4918 36.0474 22.8148 33.1852 22.8148H28V12.4444Z" fill="#FF7262"></path>
<path d="M38.3704 28C38.3704 30.8622 36.0474 33.1851 33.1852 33.1851C30.323 33.1851 28 30.8622 28 28C28 25.1377 30.323 22.8148 33.1852 22.8148C36.0474 22.8148 38.3704 25.1377 38.3704 28Z" fill="#1ABCFE"></path>
<rect x="116" width="56" height="56" rx="16" fill="#1E2235"></rect>
<path d="M132.778 40.455L130.282 12.4444H157.718L155.223 40.4399L143.977 43.5556" fill="#E44D26"></path>
<path d="M144 41.1737V14.7436H155.215L153.075 38.6403" fill="#F16529"></path>
<path d="M135.379 18.1692H144V21.6024H139.145L139.463 25.1189H144V28.5446H136.317L135.379 18.1692ZM136.468 30.2688H139.917L140.159 33.0139L144 34.0423V37.6268L136.952 35.6607" fill="#EBEBEB"></path>
<path d="M152.591 18.1692H143.985V21.6024H152.273L152.591 18.1692ZM151.963 25.1189H143.985V28.5521H148.22L147.819 33.0139L143.985 34.0423V37.6117L151.018 35.6607" fill="#1E2235"></path>
<rect x="232" width="56" height="56" rx="16" fill="#1E2235"></rect>
<path d="M273.716 12.4444L271.217 40.4412L259.983 43.5556L248.78 40.4456L246.284 12.4444H273.716Z" fill="#264DE4"></path>
<path d="M269.077 38.6584L271.213 14.7339H260V41.1751L269.077 38.6584Z" fill="#2965F1"></path>
<path d="M252.007 25.1192L252.315 28.5534H260V25.1192H252.007Z" fill="#EBEBEB"></path>
<path d="M260 18.1682H259.988H251.388L251.7 21.6024H260V18.1682Z" fill="#EBEBEB"></path>
<path d="M260 37.6112V34.0381L259.985 34.0422L256.16 33.0094L255.916 30.2704H254.057H252.468L252.949 35.6627L259.984 37.6156L260 37.6112Z" fill="#EBEBEB"></path>
<path d="M264.217 28.5533L263.818 33.0072L259.988 34.041V37.6139L267.028 35.6627L267.08 35.0825L267.887 26.0413L267.971 25.1191L268.591 18.1682H259.988V21.6024H264.827L264.514 25.1191H259.988V28.5533H264.217Z" fill="#1E2235"></path>
<rect x="348" width="56" height="56" rx="16" fill="#1E2235"></rect>
<path d="M374.726 12.7764C375.497 12.3348 376.502 12.3328 377.273 12.7764C381.15 14.9674 385.029 17.155 388.906 19.3473C389.635 19.7581 390.123 20.5696 390.116 21.4098V34.5919C390.121 35.4669 389.585 36.2978 388.816 36.6992C384.951 38.8782 381.088 41.0598 377.224 43.2387C376.437 43.6889 375.412 43.6542 374.649 43.1672C373.49 42.4955 372.33 41.8271 371.171 41.1561C370.934 41.0149 370.667 40.9026 370.5 40.673C370.648 40.4737 370.912 40.4489 371.127 40.3619C371.61 40.2082 372.055 39.9613 372.499 39.7217C372.611 39.6448 372.748 39.6743 372.856 39.7431C373.847 40.3112 374.829 40.8958 375.823 41.4585C376.035 41.5809 376.25 41.4183 376.431 41.3173C380.224 39.1738 384.021 37.0384 387.813 34.8942C387.953 34.8267 388.031 34.6775 388.02 34.5236C388.022 30.1751 388.02 25.8259 388.021 21.4774C388.037 21.3028 387.936 21.1422 387.778 21.0708C383.927 18.9018 380.077 16.7295 376.227 14.56C376.16 14.5141 376.081 14.4895 376 14.4894C375.919 14.4892 375.84 14.5136 375.773 14.5593C371.922 16.7295 368.073 18.9038 364.223 21.0726C364.065 21.1442 363.96 21.3021 363.979 21.4774C363.979 25.8259 363.979 30.1751 363.979 34.5243C363.972 34.5994 363.988 34.6747 364.026 34.7401C364.063 34.8056 364.12 34.858 364.188 34.8903C365.216 35.473 366.244 36.0516 367.273 36.6323C367.852 36.9441 368.563 37.1294 369.201 36.8905C369.765 36.6885 370.159 36.1137 370.149 35.5157C370.154 31.1926 370.146 26.8689 370.153 22.5464C370.139 22.3545 370.321 22.196 370.507 22.214C371.001 22.2107 371.495 22.2074 371.989 22.2154C372.195 22.2107 372.337 22.4174 372.312 22.6107C372.31 26.9612 372.317 31.3118 372.308 35.6622C372.31 36.8217 371.833 38.0833 370.761 38.6506C369.44 39.335 367.807 39.1899 366.501 38.5336C365.371 37.9696 364.293 37.304 363.183 36.6998C362.412 36.3006 361.878 35.4663 361.884 34.592V21.4098C361.876 20.5522 362.383 19.7259 363.135 19.3212C366.999 17.1405 370.862 14.9581 374.726 12.7764Z" fill="#8CC84B"></path>
<path d="M378.097 21.9076C379.782 21.7992 381.587 21.8434 383.103 22.6736C384.277 23.3099 384.928 24.6451 384.949 25.9496C384.916 26.1256 384.732 26.2227 384.564 26.2106C384.075 26.2099 383.586 26.2172 383.097 26.2072C382.89 26.2152 382.769 26.024 382.743 25.8406C382.603 25.2164 382.262 24.5983 381.675 24.2972C380.773 23.8457 379.727 23.8684 378.744 23.8778C378.026 23.9159 377.254 23.9781 376.646 24.4003C376.179 24.72 376.037 25.3656 376.204 25.8855C376.361 26.2588 376.792 26.3792 377.144 26.4902C379.175 27.0214 381.328 26.9686 383.32 27.6676C384.145 27.9526 384.952 28.5066 385.234 29.3702C385.603 30.5277 385.441 31.9112 384.618 32.8404C383.95 33.605 382.977 34.0212 382.007 34.2472C380.717 34.535 379.378 34.5423 378.067 34.4146C376.835 34.2741 375.552 33.9503 374.601 33.1106C373.787 32.4043 373.39 31.3036 373.429 30.2414C373.439 30.062 373.617 29.9369 373.789 29.9516C374.282 29.9476 374.774 29.9463 375.267 29.9523C375.463 29.9382 375.609 30.1082 375.619 30.2936C375.71 30.8882 375.933 31.5124 376.452 31.865C377.453 32.5106 378.709 32.4664 379.854 32.4845C380.804 32.4424 381.87 32.4296 382.644 31.8022C383.053 31.4443 383.174 30.8455 383.064 30.3304C382.944 29.8954 382.489 29.6928 382.098 29.5603C380.093 28.926 377.917 29.1562 375.931 28.4389C375.125 28.1541 374.346 27.6154 374.036 26.7873C373.604 25.6152 373.802 24.1655 374.712 23.2676C375.599 22.3746 376.88 22.0306 378.097 21.9075V21.9076Z" fill="#8CC84B"></path>
<rect x="464" width="56" height="56" rx="16" fill="#1E2235"></rect>
<path d="M483.785 23.5323H489.653V23.9964H484.323V27.4897H489.335V27.9539H484.323V31.7892H489.714V32.2533H483.785V23.5323ZM490.179 23.5323H490.802L493.565 27.3676L496.389 23.5323L500.23 18.6606L493.919 27.7706L497.171 32.2533H496.523L493.565 28.1737L490.594 32.2533H489.959L493.235 27.7706L490.179 23.5323ZM497.403 23.9964V23.5323H504.09V23.9964H501.01V32.2533H500.472V23.9964H497.403Z" fill="white"></path>
<path d="M476.444 23.5323H477.117L486.388 37.3394L482.557 32.2533L477.007 24.1919L476.982 32.2533H476.444V23.5323Z" fill="white"></path>
<path d="M504.036 31.6491C504.147 31.6491 504.228 31.5643 504.228 31.4548C504.228 31.3453 504.147 31.2606 504.036 31.2606C503.926 31.2606 503.844 31.3453 503.844 31.4548C503.844 31.5643 503.926 31.6491 504.036 31.6491ZM504.565 31.138C504.565 31.4614 504.799 31.6725 505.14 31.6725C505.504 31.6725 505.724 31.4548 505.724 31.0768V29.7457H505.431V31.0755C505.431 31.2854 505.325 31.3975 505.138 31.3975C504.97 31.3975 504.856 31.2932 504.852 31.138H504.565ZM506.107 31.1211C506.128 31.4574 506.409 31.6725 506.828 31.6725C507.275 31.6725 507.555 31.447 507.555 31.0872C507.555 30.8043 507.396 30.6479 507.008 30.5579L506.8 30.5071C506.554 30.4497 506.455 30.3728 506.455 30.2385C506.455 30.069 506.609 29.9582 506.841 29.9582C507.061 29.9582 507.213 30.0664 507.24 30.2398H507.525C507.508 29.923 507.228 29.7001 506.845 29.7001C506.433 29.7001 506.158 29.923 506.158 30.2581C506.158 30.5344 506.314 30.6987 506.655 30.7782L506.899 30.8369C507.148 30.8956 507.258 30.9816 507.258 31.125C507.258 31.2919 507.086 31.4131 506.85 31.4131C506.598 31.4131 506.422 31.2997 506.397 31.1211H506.107Z" fill="white"></path>
<rect x="580" width="56" height="56" rx="16" fill="#1E2235"></rect>
<path d="M619.233 29.7466C618.148 29.7523 617.205 30.0137 616.415 30.4001C616.125 29.8262 615.835 29.3147 615.784 28.9397C615.727 28.5021 615.659 28.235 615.727 27.7123C615.795 27.1895 616.102 26.445 616.097 26.3882C616.091 26.3314 616.028 26.0643 615.403 26.0586C614.778 26.0529 614.238 26.178 614.176 26.3428C614.113 26.5075 613.994 26.8826 613.915 27.269C613.807 27.8373 612.664 29.8659 612.011 30.9286C611.801 30.5138 611.619 30.1501 611.579 29.8603C611.522 29.4227 611.454 29.1556 611.522 28.6328C611.59 28.11 611.897 27.3656 611.892 27.3088C611.886 27.252 611.823 26.9849 611.198 26.9792C610.573 26.9735 610.033 27.0985 609.971 27.2633C609.908 27.4281 609.84 27.8145 609.709 28.1896C609.579 28.5646 608.062 31.9514 607.664 32.8266C607.459 33.2755 607.283 33.6335 607.158 33.8778C607.158 33.8778 607.152 33.8949 607.135 33.9233C607.027 34.1336 606.965 34.2472 606.965 34.2472C606.965 34.2472 606.965 34.2472 606.965 34.2529C606.88 34.4063 606.789 34.5484 606.743 34.5484C606.709 34.5484 606.647 34.1392 606.755 33.5823C606.982 32.4061 607.522 30.5763 607.516 30.5138C607.516 30.4797 607.618 30.1614 607.164 29.9966C606.72 29.8319 606.561 30.1046 606.522 30.1046C606.482 30.1046 606.453 30.2012 606.453 30.2012C606.453 30.2012 606.948 28.1441 605.51 28.1441C604.612 28.1441 603.373 29.1272 602.76 30.0137C602.373 30.2239 601.549 30.6729 600.668 31.1559C600.333 31.3434 599.987 31.5309 599.663 31.7071C599.64 31.6844 599.617 31.656 599.594 31.6332C597.856 29.775 594.639 28.4624 594.776 25.9677C594.827 25.0585 595.139 22.6718 600.953 19.7737C605.737 17.4154 609.545 18.0689 610.204 19.518C611.147 21.5864 608.164 25.4279 603.22 25.9848C601.333 26.195 600.345 25.4676 600.095 25.1949C599.833 24.9107 599.793 24.8937 599.697 24.9505C599.538 25.0358 599.64 25.2915 599.697 25.4392C599.845 25.8256 600.453 26.5075 601.481 26.8428C602.39 27.1383 604.601 27.3031 607.277 26.2689C610.272 25.1096 612.613 21.8876 611.926 19.1884C611.238 16.4494 606.692 15.5459 602.39 17.0745C599.833 17.9837 597.06 19.4157 595.065 21.2796C592.696 23.4958 592.321 25.4222 592.474 26.2291C593.025 29.0931 596.975 30.957 598.555 32.3379C598.475 32.3833 598.401 32.4231 598.339 32.4572C597.549 32.8493 594.537 34.4234 593.787 36.0884C592.935 37.975 593.923 39.3274 594.577 39.5093C596.605 40.0718 598.691 39.0603 599.81 37.3897C600.93 35.719 600.794 33.5482 600.276 32.5538C600.271 32.5424 600.265 32.5311 600.254 32.5197C600.458 32.4004 600.668 32.2754 600.873 32.156C601.277 31.9174 601.674 31.6957 602.015 31.5139C601.822 32.0424 601.68 32.6731 601.612 33.5823C601.527 34.6507 601.964 36.0372 602.538 36.5827C602.794 36.8214 603.095 36.8271 603.288 36.8271C603.959 36.8271 604.26 36.2702 604.595 35.611C605.004 34.8041 605.374 33.8665 605.374 33.8665C605.374 33.8665 604.913 36.4009 606.164 36.4009C606.618 36.4009 607.078 35.8099 607.283 35.5087C607.283 35.5144 607.283 35.5144 607.283 35.5144C607.283 35.5144 607.294 35.4974 607.317 35.4576C607.363 35.3837 607.391 35.3383 607.391 35.3383C607.391 35.3383 607.391 35.3326 607.391 35.3269C607.573 35.0087 607.982 34.287 608.59 33.088C609.374 31.5423 610.13 29.6102 610.13 29.6102C610.13 29.6102 610.198 30.0819 610.431 30.8661C610.568 31.3264 610.852 31.8321 611.079 32.3208C610.897 32.5765 610.783 32.7186 610.783 32.7186C610.783 32.7186 610.783 32.7186 610.789 32.7243C610.641 32.9175 610.482 33.1277 610.306 33.3323C609.687 34.071 608.948 34.9177 608.846 35.1621C608.726 35.4519 608.755 35.6622 608.982 35.8326C609.147 35.9577 609.442 35.9747 609.744 35.9577C610.3 35.9179 610.693 35.7815 610.886 35.6963C611.187 35.5883 611.539 35.4235 611.869 35.1791C612.477 34.7302 612.846 34.0881 612.812 33.2414C612.795 32.7754 612.642 32.3094 612.454 31.8719C612.511 31.7923 612.562 31.7128 612.619 31.6332C613.579 30.2296 614.324 28.6897 614.324 28.6897C614.324 28.6897 614.392 29.1613 614.625 29.9455C614.739 30.3433 614.972 30.7752 615.176 31.1957C614.273 31.9287 613.716 32.7811 613.517 33.338C613.159 34.3722 613.437 34.8382 613.966 34.9462C614.204 34.9973 614.545 34.8836 614.795 34.7757C615.114 34.6734 615.489 34.4972 615.847 34.2358C616.455 33.7869 617.04 33.1618 617.006 32.3151C616.989 31.9287 616.887 31.548 616.744 31.1786C617.512 30.8604 618.5 30.6842 619.762 30.832C622.467 31.1502 623.001 32.8379 622.899 33.5482C622.796 34.2586 622.228 34.645 622.041 34.7643C621.853 34.8836 621.791 34.9234 621.808 35.0087C621.83 35.1337 621.921 35.128 622.08 35.1053C622.302 35.0655 623.501 34.5313 623.552 33.2243C623.637 31.5537 622.046 29.7296 619.233 29.7466ZM598.367 36.7816C597.469 37.759 596.219 38.1284 595.679 37.8159C595.1 37.4806 595.327 36.0372 596.429 35.003C597.1 34.3722 597.964 33.7869 598.538 33.4289C598.668 33.3494 598.861 33.2357 599.094 33.0936C599.134 33.0709 599.157 33.0595 599.157 33.0595C599.202 33.0311 599.248 33.0027 599.293 32.9743C599.697 34.4518 599.31 35.7531 598.367 36.7816ZM604.902 32.3379C604.589 33.0993 603.936 35.0484 603.538 34.9405C603.197 34.8496 602.987 33.3721 603.47 31.9117C603.714 31.1786 604.231 30.3035 604.533 29.9625C605.021 29.417 605.561 29.2352 605.692 29.4568C605.857 29.7466 605.095 31.8605 604.902 32.3379ZM610.295 34.9177C610.164 34.9859 610.039 35.0314 609.982 34.9973C609.942 34.9746 610.039 34.8836 610.039 34.8836C610.039 34.8836 610.715 34.1563 610.982 33.8267C611.136 33.6335 611.318 33.4062 611.511 33.1505C611.511 33.1732 611.511 33.2016 611.511 33.2243C611.511 34.0938 610.67 34.6791 610.295 34.9177ZM614.454 33.9688C614.358 33.9006 614.375 33.6733 614.699 32.9629C614.824 32.6845 615.119 32.2185 615.625 31.7696C615.682 31.9514 615.722 32.1276 615.716 32.2924C615.71 33.3891 614.926 33.7983 614.454 33.9688Z" fill="#F472B6"></path>
<rect x="696" width="56" height="56" rx="16" fill="#1E2235"></rect>
<path d="M708.74 23.3437C708.74 23.3437 707.983 22.7975 708.892 22.0681L711.01 20.1738C711.01 20.1738 711.617 19.536 712.258 20.0917L731.808 34.8931V41.9907C731.808 41.9907 731.798 43.1052 730.368 42.9821L708.74 23.3437Z" fill="#2489CA"></path>
<path d="M713.779 27.9187L708.74 32.4999C708.74 32.4999 708.223 32.8851 708.74 33.5734L711.08 35.7014C711.08 35.7014 711.636 36.2981 712.457 35.6193L717.799 31.5685L713.779 27.9187Z" fill="#1070B3"></path>
<path d="M722.626 27.9565L731.868 20.9L731.808 13.8403C731.808 13.8403 731.413 12.2995 730.097 13.1014L717.799 24.2941L722.626 27.9565Z" fill="#0877B9"></path>
<path d="M730.368 42.9916C730.904 43.5409 731.555 43.361 731.555 43.361L738.757 39.8122C739.679 39.1839 739.549 38.404 739.549 38.404V17.2122C739.549 16.2808 738.596 15.9588 738.596 15.9588L732.354 12.9499C730.99 12.1069 730.096 13.1014 730.096 13.1014C730.096 13.1014 731.245 12.2742 731.807 13.8402V41.8612C731.807 42.0538 731.766 42.2433 731.684 42.4138C731.52 42.7453 731.163 43.0547 730.308 42.9253L730.368 42.9916Z" fill="#3C99D4"></path>
<rect x="812" width="56" height="56" rx="16" fill="#1E2235"></rect>
<path d="M854.256 12.4444H839.274C839.274 14.2381 839.987 15.9582 841.255 17.2265C842.524 18.4948 844.244 19.2073 846.037 19.2073H848.797V21.8719C848.799 25.6036 851.824 28.6281 855.556 28.6306V13.7441C855.556 13.0265 854.974 12.4444 854.256 12.4444Z" fill="#2684FF"></path>
<path d="M846.843 19.9092H831.862C831.864 23.6408 834.889 26.6654 838.62 26.6678H841.38V29.3409C841.385 33.0726 844.411 36.095 848.143 36.095V21.2091C848.143 20.4913 847.561 19.9093 846.843 19.9093V19.9092Z" fill="url(#paint0_linear_15_156)"></path>
<path d="M839.426 27.3697H824.444C824.444 31.1047 827.472 34.1326 831.207 34.1326H833.976V36.797C833.978 40.5253 836.997 43.5485 840.726 43.5555V28.6694C840.726 27.9516 840.144 27.3697 839.426 27.3697Z" fill="url(#paint1_linear_15_156)"></path>
<rect x="928" width="56" height="56" rx="16" fill="#1E2235"></rect>
<path d="M963.159 32.3313C962.445 32.3313 961.864 31.7498 961.864 31.0355C961.864 30.3211 962.445 29.7401 963.159 29.7401C963.874 29.7401 964.455 30.321 964.455 31.0355C964.455 31.7499 963.874 32.3313 963.159 32.3313ZM948.84 32.3313C948.126 32.3313 947.545 31.7498 947.545 31.0355C947.545 30.3211 948.126 29.7401 948.84 29.7401C949.555 29.7401 950.136 30.321 950.136 31.0355C950.136 31.7499 949.555 32.3313 948.84 32.3313ZM963.624 24.5277L966.213 20.0435C966.284 19.9198 966.304 19.7728 966.267 19.6349C966.23 19.4969 966.14 19.3793 966.016 19.3077C965.892 19.2365 965.745 19.2172 965.607 19.2542C965.469 19.2912 965.352 19.3813 965.28 19.5049L962.659 24.0458C960.654 23.1309 958.402 22.6213 956 22.6213C953.597 22.6213 951.346 23.1309 949.341 24.0458L946.72 19.5049C946.648 19.3813 946.53 19.2912 946.392 19.2542C946.255 19.2172 946.108 19.2365 945.984 19.3077C945.86 19.3792 945.77 19.4968 945.733 19.6348C945.696 19.7728 945.715 19.9198 945.787 20.0435L948.376 24.5277C943.93 26.9457 940.889 31.4466 940.444 36.7642H971.555C971.11 31.4468 968.07 26.9457 963.624 24.5276" fill="#3DDB85"></path>
<rect x="1044" width="56" height="56" rx="16" fill="#1E2235"></rect>
<path d="M1065.66 26.8236C1065.52 26.6372 1065.31 26.515 1065.08 26.4836C1064.84 26.4523 1064.61 26.5144 1064.42 26.6563C1064.31 26.7431 1064.22 26.8538 1064.16 26.9801L1056.54 42.2292C1056.43 42.4453 1056.41 42.6955 1056.49 42.9246C1056.57 43.1538 1056.73 43.3433 1056.95 43.4514C1057.07 43.5153 1057.21 43.5483 1057.36 43.5479H1067.98C1068.15 43.5522 1068.31 43.5069 1068.46 43.4174C1068.6 43.3279 1068.72 43.1981 1068.79 43.044C1071.08 38.3097 1069.69 31.1119 1065.66 26.8236Z" fill="url(#paint2_linear_15_156)"></path>
<path d="M1071.27 12.9467C1069.37 15.8707 1068.26 19.2386 1068.05 22.7197C1067.85 26.2009 1068.55 29.6758 1070.09 32.8036L1075.21 43.044C1075.29 43.1953 1075.4 43.3226 1075.55 43.4116C1075.69 43.5006 1075.86 43.5478 1076.03 43.5479H1086.64C1086.76 43.5481 1086.88 43.5248 1086.99 43.4791C1087.1 43.4334 1087.2 43.3663 1087.29 43.2816C1087.37 43.1969 1087.44 43.0963 1087.49 42.9857C1087.53 42.875 1087.56 42.7563 1087.56 42.6366C1087.56 42.4954 1087.52 42.356 1087.46 42.2292L1072.82 12.9424C1072.75 12.7956 1072.64 12.6716 1072.5 12.5848C1072.36 12.4979 1072.2 12.4518 1072.04 12.4518C1071.88 12.4518 1071.72 12.4979 1071.58 12.5848C1071.45 12.6716 1071.34 12.7956 1071.27 12.9424V12.9467Z" fill="#2684FF"></path>
<rect x="1160" width="56" height="56" rx="16" fill="#1E2235"></rect>
<path d="M1173.74 14.1297H1202.26V41.8704H1173.74V14.1297Z" fill="#2E001E"></path>
<path d="M1172.44 12.8333V43.1666H1203.56V12.8333H1172.44ZM1173.74 14.1296H1202.26V41.8703H1173.74V14.1296Z" fill="#FF2BC2"></path>
<path d="M1195.04 25.5759C1194.84 25.4852 1194.6 25.4463 1194.29 25.4463C1192.65 25.4463 1191.56 26.7037 1191.56 28.7907C1191.56 31.1759 1192.68 32.1351 1194.13 32.1351C1194.44 32.1351 1194.78 32.0963 1195.03 31.9926V25.5759H1195.04ZM1189.23 28.8944C1189.23 25.8741 1191.18 23.5148 1194.36 23.5148C1194.64 23.5148 1194.78 23.5148 1195.04 23.5407V20.1704C1195.04 20.0926 1195.1 20.0407 1195.17 20.0407H1197.26C1197.36 20.0407 1197.38 20.0796 1197.38 20.1444V31.9926C1197.38 32.3426 1197.38 32.7833 1197.45 33.2629C1197.45 33.3537 1197.45 33.3666 1197.37 33.4055C1196.28 33.924 1195.14 34.1574 1194.05 34.1574C1191.24 34.1574 1189.23 32.4203 1189.23 28.8944V28.8944ZM1184.81 26.7944L1188.44 33.8333C1188.51 33.937 1188.47 34.0407 1188.36 34.0407H1186.11C1185.96 34.0407 1185.9 34.0018 1185.83 33.8722C1185.01 32.1611 1184.16 30.3852 1183.29 28.5444H1183.27C1182.49 30.2814 1181.63 32.174 1180.81 33.8851C1180.74 33.9888 1180.68 34.0277 1180.57 34.0277H1178.42C1178.29 34.0277 1178.28 33.924 1178.34 33.8463L1181.89 27.0148L1178.46 20.2222C1178.38 20.1185 1178.46 20.0278 1178.55 20.0278H1180.78C1180.91 20.0278 1180.97 20.0537 1181.01 20.1704C1181.83 21.8944 1182.66 23.5926 1183.44 25.3296H1183.46C1184.21 23.6185 1185.04 21.8944 1185.83 20.1963C1185.9 20.0926 1185.94 20.0278 1186.07 20.0278H1188.16C1188.26 20.0278 1188.3 20.1055 1188.23 20.2222L1184.81 26.7944V26.7944Z" fill="#FF2BC2"></path>
<rect x="1276" width="56" height="56" rx="16" fill="#1E2235"></rect>
<path d="M1304 30.7428C1305.51 30.7428 1306.74 29.5148 1306.74 28C1306.74 26.4852 1305.51 25.2572 1304 25.2572C1302.48 25.2572 1301.26 26.4852 1301.26 28C1301.26 29.5148 1302.48 30.7428 1304 30.7428Z" fill="#61DAFB"></path>
<path fill-rule="evenodd" clip-rule="evenodd" d="M1291.11 26.555C1290.49 27.1157 1290.28 27.6057 1290.28 28C1290.28 28.3944 1290.49 28.8844 1291.11 29.4451C1291.73 30.0057 1292.68 30.5564 1293.95 31.0393C1296.47 32.0027 1300.03 32.6195 1304 32.6195C1307.97 32.6195 1311.53 32.0027 1314.05 31.0393C1315.31 30.5564 1316.27 30.0057 1316.89 29.4451C1317.51 28.8844 1317.72 28.3944 1317.72 28C1317.72 27.6057 1317.51 27.1157 1316.89 26.555C1316.27 25.9943 1315.31 25.4436 1314.05 24.9607C1311.53 23.9974 1307.97 23.3806 1304 23.3806C1300.03 23.3806 1296.47 23.9974 1293.95 24.9607C1292.68 25.4436 1291.73 25.9943 1291.11 26.555ZM1293.24 23.0922C1296.04 22.0217 1299.85 21.3806 1304 21.3806C1308.15 21.3806 1311.96 22.0217 1314.76 23.0922C1316.16 23.6262 1317.36 24.2864 1318.23 25.0704C1319.1 25.8543 1319.72 26.8426 1319.72 28C1319.72 29.1574 1319.1 30.1457 1318.23 30.9296C1317.36 31.7136 1316.16 32.3738 1314.76 32.9078C1311.96 33.9783 1308.15 34.6195 1304 34.6195C1299.85 34.6195 1296.04 33.9783 1293.24 32.9078C1291.84 32.3738 1290.64 31.7136 1289.77 30.9296C1288.9 30.1457 1288.28 29.1574 1288.28 28C1288.28 26.8426 1288.9 25.8543 1289.77 25.0704C1290.64 24.2864 1291.84 23.6262 1293.24 23.0922Z" fill="#61DAFB"></path>
<path fill-rule="evenodd" clip-rule="evenodd" d="M1298.81 16.1136C1298.01 15.856 1297.48 15.923 1297.14 16.1202C1296.8 16.3174 1296.48 16.7404 1296.3 17.5586C1296.13 18.3768 1296.13 19.479 1296.34 20.8159C1296.77 23.4825 1298.01 26.8679 1300 30.3097C1301.99 33.7515 1304.3 36.5201 1306.39 38.2234C1307.44 39.0774 1308.4 39.6289 1309.19 39.8864C1309.99 40.144 1310.52 40.077 1310.86 39.8798C1311.2 39.6826 1311.52 39.2596 1311.7 38.4414C1311.87 37.6232 1311.87 36.521 1311.66 35.1841C1311.23 32.5174 1309.99 29.1321 1308 25.6903C1306.01 22.2485 1303.7 19.4799 1301.61 17.7766C1300.56 16.9226 1299.6 16.3711 1298.81 16.1136ZM1302.87 16.2245C1305.2 18.1174 1307.66 21.0927 1309.73 24.6903C1311.81 28.2878 1313.16 31.9043 1313.63 34.8677C1313.87 36.3457 1313.9 37.7155 1313.65 38.8597C1313.41 40.0037 1312.86 41.0331 1311.86 41.6118C1310.86 42.1906 1309.69 42.1494 1308.58 41.7893C1307.46 41.4292 1306.29 40.7196 1305.13 39.7755C1302.8 37.8826 1300.34 34.9073 1298.27 31.3097C1296.19 27.7122 1294.84 24.0957 1294.37 21.1323C1294.13 19.6543 1294.1 18.2844 1294.35 17.1403C1294.59 15.9963 1295.14 14.9669 1296.14 14.3881C1297.14 13.8094 1298.31 13.8506 1299.42 14.2107C1300.53 14.5708 1301.71 15.2804 1302.87 16.2245Z" fill="#61DAFB"></path>
<path fill-rule="evenodd" clip-rule="evenodd" d="M1311.7 17.5586C1311.52 16.7404 1311.2 16.3174 1310.86 16.1202C1310.52 15.923 1309.99 15.856 1309.19 16.1136C1308.4 16.3711 1307.44 16.9226 1306.39 17.7766C1304.3 19.4799 1301.99 22.2485 1300 25.6903C1298.01 29.132 1296.77 32.5174 1296.34 35.1841C1296.13 36.521 1296.13 37.6232 1296.3 38.4413C1296.48 39.2596 1296.8 39.6826 1297.14 39.8798C1297.48 40.077 1298.01 40.144 1298.81 39.8864C1299.6 39.6289 1300.56 39.0774 1301.61 38.2234C1303.7 36.5201 1306.01 33.7515 1308 30.3097C1309.99 26.8679 1311.23 23.4825 1311.66 20.8159C1311.87 19.479 1311.87 18.3767 1311.7 17.5586ZM1313.63 21.1323C1313.16 24.0957 1311.81 27.7122 1309.73 31.3097C1307.66 34.9073 1305.2 37.8826 1302.87 39.7754C1301.71 40.7196 1300.53 41.4292 1299.42 41.7893C1298.31 42.1494 1297.14 42.1906 1296.14 41.6118C1295.14 41.0331 1294.59 40.0037 1294.35 38.8597C1294.1 37.7155 1294.13 36.3457 1294.37 34.8677C1294.84 31.9043 1296.19 28.2878 1298.27 24.6903C1300.34 21.0927 1302.8 18.1174 1305.13 16.2245C1306.29 15.2804 1307.47 14.5708 1308.58 14.2107C1309.69 13.8506 1310.86 13.8094 1311.86 14.3881C1312.86 14.9668 1313.41 15.9963 1313.65 17.1403C1313.9 18.2844 1313.87 19.6542 1313.63 21.1323Z" fill="#61DAFB"></path>
<rect x="1392" width="56" height="56" rx="16" fill="#1E2235"></rect>
<path d="M1435.17 17.0492L1420.82 43.1495C1420.53 43.6884 1419.77 43.6915 1419.46 43.1553L1404.83 17.0516C1404.51 16.4673 1405 15.7595 1405.65 15.8779L1420.01 18.4896C1420.1 18.5062 1420.2 18.5061 1420.29 18.4891L1434.35 15.8816C1435 15.7613 1435.49 16.4637 1435.17 17.0492V17.0492Z" fill="url(#paint3_linear_15_156)"></path>
<path d="M1426.85 12.4521L1416.23 14.5686C1416.15 14.5856 1416.07 14.6307 1416.02 14.6969C1415.96 14.7631 1415.93 14.8467 1415.92 14.9345L1415.27 26.1564C1415.26 26.2179 1415.27 26.2795 1415.3 26.3361C1415.32 26.3928 1415.36 26.443 1415.4 26.4828C1415.45 26.5226 1415.51 26.5509 1415.56 26.5654C1415.62 26.5799 1415.69 26.5802 1415.74 26.5664L1418.7 25.8723C1418.98 25.8074 1419.23 26.0553 1419.17 26.3382L1418.29 30.7134C1418.23 31.0079 1418.5 31.2596 1418.79 31.1722L1420.61 30.6079C1420.9 30.5205 1421.17 30.773 1421.11 31.0677L1419.71 37.9401C1419.62 38.37 1420.19 38.6044 1420.42 38.2359L1420.58 37.9897L1429.23 20.4243C1429.37 20.1302 1429.12 19.7948 1428.81 19.8572L1425.76 20.4546C1425.48 20.5107 1425.24 20.2398 1425.32 19.9553L1427.3 12.9513C1427.38 12.6661 1427.14 12.3951 1426.85 12.4521H1426.85Z" fill="url(#paint4_linear_15_156)"></path>
<rect x="1508" width="56" height="56" rx="16" fill="#1E2235"></rect>
<path fill-rule="evenodd" clip-rule="evenodd" d="M1536 35.8832C1544.59 35.8832 1551.56 32.3536 1551.56 28C1551.56 23.6464 1544.59 20.1169 1536 20.1169C1527.41 20.1169 1520.44 23.6464 1520.44 28C1520.44 32.3536 1527.41 35.8832 1536 35.8832Z" fill="#A5B4FC"></path>
<path fill-rule="evenodd" clip-rule="evenodd" d="M1539.15 30.548L1539.92 26.5768C1540.1 25.6805 1539.95 25.012 1539.49 24.5895C1539.05 24.1807 1538.29 23.9819 1537.18 23.9819H1535.85L1536.23 22.0144C1536.24 21.9778 1536.24 21.94 1536.23 21.9038C1536.22 21.8677 1536.2 21.834 1536.18 21.8052C1536.15 21.7764 1536.12 21.7532 1536.09 21.7372C1536.06 21.7213 1536.02 21.713 1535.98 21.713H1534.14C1534.02 21.713 1533.91 21.799 1533.89 21.9179L1533.07 26.1338C1532.99 25.6594 1532.81 25.2516 1532.52 24.9151C1531.98 24.2959 1531.12 23.9819 1529.97 23.9819H1526.4C1526.28 23.9819 1526.17 24.0679 1526.15 24.1866L1524.49 32.7203C1524.48 32.7946 1524.5 32.871 1524.55 32.9293C1524.59 32.9878 1524.66 33.0215 1524.74 33.0215H1526.6C1526.72 33.0215 1526.82 32.9355 1526.85 32.8165L1527.25 30.7524H1528.63C1529.36 30.7524 1529.97 30.6738 1530.44 30.5188C1530.93 30.3604 1531.38 30.0918 1531.78 29.722C1532.09 29.4288 1532.36 29.1003 1532.56 28.7461L1532.23 30.4511C1532.22 30.5254 1532.23 30.6021 1532.28 30.6601C1532.33 30.7186 1532.4 30.7522 1532.48 30.7522H1534.32C1534.44 30.7522 1534.55 30.6663 1534.57 30.5476L1535.48 25.8633H1536.75C1537.29 25.8633 1537.44 25.9707 1537.49 26.0168C1537.53 26.0589 1537.61 26.2073 1537.52 26.6751L1536.78 30.4509C1536.78 30.4875 1536.78 30.5252 1536.79 30.5613C1536.79 30.5975 1536.81 30.6311 1536.84 30.6599C1536.86 30.6886 1536.89 30.7118 1536.92 30.7277C1536.96 30.7437 1536.99 30.752 1537.03 30.752H1538.9C1538.96 30.7522 1539.02 30.7319 1539.06 30.6946C1539.11 30.6574 1539.14 30.6055 1539.15 30.548V30.548ZM1530.6 27.2667C1530.49 27.8621 1530.27 28.2866 1529.95 28.5287C1529.63 28.7753 1529.12 28.9002 1528.43 28.9002H1527.61L1528.2 25.8345H1529.27C1530.05 25.8345 1530.37 26.0017 1530.49 26.1419C1530.67 26.3364 1530.71 26.7256 1530.6 27.2667V27.2667ZM1546.92 24.9151C1546.38 24.2959 1545.52 23.9819 1544.38 23.9819H1540.8C1540.68 23.9819 1540.58 24.0679 1540.55 24.1866L1538.9 32.7203C1538.88 32.7946 1538.9 32.871 1538.95 32.9293C1539 32.9876 1539.07 33.0215 1539.14 33.0215H1541C1541.12 33.0215 1541.23 32.9355 1541.25 32.8165L1541.65 30.7524H1543.04C1543.76 30.7524 1544.37 30.6738 1544.85 30.5188C1545.34 30.3604 1545.78 30.0918 1546.18 29.722C1546.51 29.4194 1546.78 29.0791 1546.99 28.7117C1547.19 28.3444 1547.34 27.9347 1547.42 27.4938C1547.64 26.4063 1547.47 25.5388 1546.92 24.9151V24.9151ZM1545.11 27.2667C1545 27.8621 1544.78 28.2866 1544.46 28.5287C1544.14 28.7753 1543.63 28.9002 1542.94 28.9002H1542.12L1542.71 25.8345H1543.78C1544.56 25.8345 1544.88 26.0017 1545 26.1419C1545.18 26.3364 1545.22 26.7256 1545.11 27.2667V27.2667Z" fill="#1E2235"></path>
<path fill-rule="evenodd" clip-rule="evenodd" d="M1529.22 25.5816C1529.92 25.5816 1530.39 25.7119 1530.63 25.9726C1530.86 26.2333 1530.92 26.681 1530.8 27.3151C1530.67 27.9755 1530.42 28.4469 1530.05 28.7294C1529.69 29.012 1529.13 29.153 1528.38 29.153H1527.25L1527.94 25.5816H1529.22ZM1524.69 32.7685H1526.55L1526.99 30.4998H1528.58C1529.28 30.4998 1529.86 30.4259 1530.31 30.2782C1530.77 30.1306 1531.18 29.8832 1531.55 29.5358C1531.86 29.2497 1532.11 28.9337 1532.31 28.5883C1532.5 28.243 1532.64 27.8621 1532.72 27.4454C1532.92 26.4338 1532.77 25.6459 1532.27 25.0816C1531.78 24.5171 1531 24.2349 1529.92 24.2349H1526.35L1524.69 32.7685V32.7685ZM1534.08 21.9661H1535.93L1535.49 24.2349H1537.13C1538.16 24.2349 1538.88 24.4151 1539.27 24.7757C1539.66 25.1363 1539.78 25.7208 1539.62 26.5286L1538.85 30.4998H1536.98L1537.71 26.7239C1537.79 26.2943 1537.76 26.0014 1537.62 25.8451C1537.47 25.689 1537.17 25.6107 1536.69 25.6107H1535.22L1534.27 30.4998H1532.43L1534.08 21.9661ZM1543.73 25.5816C1544.43 25.5816 1544.9 25.7119 1545.14 25.9726C1545.37 26.2333 1545.43 26.681 1545.31 27.3151C1545.18 27.9755 1544.93 28.4469 1544.56 28.7294C1544.2 29.012 1543.64 29.153 1542.89 29.153H1541.76L1542.45 25.5816H1543.73V25.5816ZM1539.2 32.7685H1541.06L1541.5 30.4998H1543.09C1543.79 30.4998 1544.37 30.4259 1544.82 30.2782C1545.28 30.1306 1545.69 29.8832 1546.06 29.5358C1546.37 29.2497 1546.62 28.9337 1546.82 28.5883C1547.01 28.243 1547.15 27.8621 1547.23 27.4454C1547.42 26.4338 1547.28 25.6459 1546.78 25.0816C1546.29 24.5171 1545.51 24.2349 1544.43 24.2349H1540.86L1539.2 32.7685V32.7685Z" fill="white"></path>
<rect x="1624" width="56" height="56" rx="16" fill="#1E2235"></rect>
<path d="M1652 12.8284C1643.41 12.8284 1636.44 19.7928 1636.44 28.384C1636.44 35.257 1640.9 41.0879 1647.08 43.1448C1647.86 43.2888 1648.15 42.8074 1648.15 42.3965C1648.15 42.0256 1648.13 40.8001 1648.12 39.5003C1643.8 40.4413 1642.88 37.665 1642.88 37.665C1642.18 35.8669 1641.16 35.3889 1641.16 35.3889C1639.74 34.4234 1641.26 34.4432 1641.26 34.4432C1642.82 34.553 1643.65 36.0463 1643.65 36.0463C1645.03 38.4244 1647.29 37.7368 1648.17 37.3395C1648.31 36.3339 1648.72 35.6478 1649.16 35.2594C1645.71 34.8659 1642.07 33.5321 1642.07 27.5716C1642.07 25.8734 1642.68 24.4857 1643.68 23.3963C1643.52 23.0045 1642.98 21.4224 1643.83 19.2797C1643.83 19.2797 1645.13 18.8616 1648.11 20.8742C1649.35 20.5294 1650.68 20.3567 1652 20.3508C1653.32 20.3567 1654.65 20.5294 1655.9 20.8742C1658.87 18.8616 1660.17 19.2797 1660.17 19.2797C1661.02 21.4224 1660.48 23.0045 1660.32 23.3963C1661.32 24.4857 1661.92 25.8733 1661.92 27.5716C1661.92 33.5462 1658.28 34.8619 1654.82 35.2469C1655.38 35.7297 1655.88 36.6764 1655.88 38.1276C1655.88 40.2089 1655.86 41.8841 1655.86 42.3965C1655.86 42.8104 1656.14 43.2955 1656.93 43.1428C1663.1 41.0835 1667.56 35.2547 1667.56 28.384C1667.56 19.7928 1660.59 12.8284 1652 12.8284Z" fill="white"></path>
<path d="M1642.27 34.9878C1642.24 35.065 1642.11 35.0882 1642 35.0352C1641.89 34.9845 1641.83 34.8791 1641.86 34.8015C1641.9 34.7219 1642.02 34.6997 1642.13 34.7532C1642.25 34.8038 1642.31 34.9102 1642.27 34.9878V34.9878ZM1643.04 35.6705C1642.96 35.7393 1642.82 35.7073 1642.72 35.5986C1642.62 35.4902 1642.6 35.3452 1642.67 35.2753C1642.75 35.2066 1642.89 35.2387 1642.99 35.3473C1643.09 35.457 1643.11 35.6011 1643.04 35.6706L1643.04 35.6705ZM1643.56 36.544C1643.47 36.6103 1643.31 36.5482 1643.21 36.4098C1643.12 36.2716 1643.12 36.1057 1643.22 36.0392C1643.31 35.9727 1643.47 36.0325 1643.56 36.1697C1643.66 36.3104 1643.66 36.4763 1643.56 36.5441L1643.56 36.544ZM1644.45 37.5558C1644.36 37.6497 1644.18 37.6246 1644.05 37.4962C1643.91 37.3708 1643.87 37.1928 1643.96 37.0987C1644.05 37.0046 1644.23 37.031 1644.36 37.1583C1644.5 37.2835 1644.54 37.4628 1644.45 37.5558H1644.45ZM1645.6 37.8974C1645.56 38.0191 1645.38 38.0745 1645.21 38.0228C1645.03 37.9695 1644.92 37.8267 1644.95 37.7036C1644.99 37.581 1645.16 37.5233 1645.34 37.5787C1645.52 37.6318 1645.63 37.7734 1645.6 37.8974H1645.6ZM1646.9 38.0422C1646.91 38.1705 1646.76 38.2769 1646.57 38.2792C1646.39 38.2832 1646.24 38.1794 1646.23 38.0533C1646.23 37.9237 1646.38 37.8183 1646.57 37.8153C1646.75 37.8116 1646.9 37.9147 1646.9 38.0422V38.0422ZM1648.18 37.993C1648.21 38.1182 1648.08 38.2468 1647.89 38.2809C1647.71 38.3139 1647.55 38.2366 1647.52 38.1126C1647.5 37.9842 1647.63 37.8558 1647.81 37.8225C1648 37.7905 1648.16 37.8658 1648.18 37.993" fill="white"></path>
<rect x="1740" width="56" height="56" rx="16" fill="#1E2235"></rect>
<path d="M1782.97 26.6139L1769.39 13.0312C1768.6 12.2489 1767.33 12.2489 1766.55 13.0312L1763.73 15.8518L1767.31 19.43C1768.14 19.149 1769.09 19.3375 1769.76 20.0003C1770.42 20.6674 1770.61 21.629 1770.32 22.4632L1773.77 25.9117C1774.61 25.6243 1775.57 25.8102 1776.23 26.4776C1777.17 27.4085 1777.17 28.9173 1776.23 29.8488C1775.3 30.7804 1773.79 30.7804 1772.86 29.8488C1772.16 29.1476 1771.99 28.1189 1772.34 27.2559L1769.13 24.04L1769.13 32.5028C1769.36 32.6181 1769.57 32.7704 1769.76 32.9537C1770.69 33.8846 1770.69 35.3935 1769.76 36.3257C1768.83 37.2569 1767.32 37.2569 1766.39 36.3257C1765.45 35.3935 1765.45 33.8847 1766.39 32.9538C1766.61 32.7306 1766.87 32.5537 1767.17 32.4336V23.8919C1766.87 23.7725 1766.61 23.5956 1766.39 23.3716C1765.68 22.667 1765.51 21.6317 1765.87 20.7653L1762.35 17.2377L1753.03 26.551C1752.25 27.334 1752.25 28.6029 1753.03 29.3853L1766.61 42.9682C1767.4 43.7506 1768.67 43.7506 1769.45 42.9682L1782.97 29.4484C1783.75 28.6657 1783.75 27.3961 1782.97 26.6139" fill="#EF4444"></path>
<rect x="1856" width="56" height="56" rx="16" fill="#1E2235"></rect>
<path d="M1884 18.6692C1879.85 18.6692 1877.26 20.7428 1876.22 24.8895C1877.78 22.8159 1879.59 22.0386 1881.67 22.5568C1882.85 22.8525 1883.7 23.7111 1884.63 24.6611C1886.16 26.2087 1887.92 27.9998 1891.78 27.9998C1895.93 27.9998 1898.52 25.9262 1899.56 21.7791C1898 23.8527 1896.19 24.6304 1894.11 24.1122C1892.93 23.8165 1892.08 22.9579 1891.15 22.0079C1889.62 20.4603 1887.86 18.6692 1884 18.6692V18.6692ZM1876.22 27.9998C1872.07 27.9998 1869.48 30.0734 1868.44 34.2205C1870 32.1469 1871.81 31.3692 1873.89 31.8878C1875.07 32.1839 1875.92 33.0421 1876.85 33.9917C1878.38 35.5393 1880.14 37.3308 1884 37.3308C1888.15 37.3308 1890.74 35.2572 1891.78 31.1101C1890.22 33.1837 1888.41 33.9614 1886.33 33.4428C1885.15 33.1475 1884.3 32.2885 1883.37 31.3389C1881.84 29.7913 1880.08 27.9998 1876.22 27.9998V27.9998Z" fill="#06B6D4"></path>
<defs>
<linearGradient id="paint0_linear_15_156" x1="847.822" y1="19.9352" x2="841.488" y2="26.5447" gradientUnits="userSpaceOnUse">
<stop offset="0.18" stop-color="#0052CC"></stop>
<stop offset="1" stop-color="#2684FF"></stop>
</linearGradient>
<linearGradient id="paint1_linear_15_156" x1="840.834" y1="27.4433" x2="833.507" y2="34.6522" gradientUnits="userSpaceOnUse">
<stop offset="0.18" stop-color="#0052CC"></stop>
<stop offset="1" stop-color="#2684FF"></stop>
</linearGradient>
<linearGradient id="paint2_linear_15_156" x1="1069.86" y1="29.1543" x2="1061.81" y2="43.0955" gradientUnits="userSpaceOnUse">
<stop stop-color="#0052CC"></stop>
<stop offset="0.92" stop-color="#2684FF"></stop>
</linearGradient>
<linearGradient id="paint3_linear_15_156" x1="1404.48" y1="17.9837" x2="1420.3" y2="39.1028" gradientUnits="userSpaceOnUse">
<stop stop-color="#41D1FF"></stop>
<stop offset="1" stop-color="#BD34FE"></stop>
</linearGradient>
<linearGradient id="paint4_linear_15_156" x1="1421.34" y1="13.0268" x2="1424.63" y2="35.2253" gradientUnits="userSpaceOnUse">
<stop stop-color="#FFEA83"></stop>
<stop offset="0.083" stop-color="#FFDD35"></stop>
<stop offset="1" stop-color="#FFA800"></stop>
</linearGradient>
</defs>
</svg>